<?xml version="1.0" encoding="UTF-8" standalone="no"?>
<!-- Created with Inkscape (http://www.inkscape.org/) -->

<svg
   xmlns:osb="http://www.openswatchbook.org/uri/2009/osb"
   xmlns:dc="http://purl.org/dc/elements/1.1/"
   xmlns:cc="http://creativecommons.org/ns#"
   xmlns:rdf="http://www.w3.org/1999/02/22-rdf-syntax-ns#"
   xmlns:svg="http://www.w3.org/2000/svg"
   xmlns="http://www.w3.org/2000/svg"
   xmlns:xlink="http://www.w3.org/1999/xlink"
   xmlns:sodipodi="http://sodipodi.sourceforge.net/DTD/sodipodi-0.dtd"
   xmlns:inkscape="http://www.inkscape.org/namespaces/inkscape"
   width="177.16534"
   height="141.73228"
   id="svg2"
   version="1.1"
   inkscape:version="0.48.2 r9819"
   sodipodi:docname="aufbau.pdf">
  <defs
     id="defs4">
    <linearGradient
       id="linearGradient6166"
       osb:paint="solid">
      <stop
         style="stop-color:#ff0000;stop-opacity:1;"
         offset="0"
         id="stop6168" />
    </linearGradient>
    <pattern
       inkscape:collect="always"
       xlink:href="#Polkadots-med"
       id="pattern6062"
       patternTransform="matrix(11.667837,0,0,11.668155,-10.296166,-156.85191)" />
    <linearGradient
       inkscape:collect="always"
       id="linearGradient6011">
      <stop
         style="stop-color:#000000;stop-opacity:1;"
         offset="0"
         id="stop6013" />
      <stop
         style="stop-color:#000000;stop-opacity:0;"
         offset="1"
         id="stop6015" />
    </linearGradient>
    <linearGradient
       inkscape:collect="always"
       id="linearGradient5829"
       osb:paint="gradient">
      <stop
         style="stop-color:#000000;stop-opacity:1;"
         offset="0"
         id="stop5831" />
      <stop
         style="stop-color:#000000;stop-opacity:0;"
         offset="1"
         id="stop5833" />
    </linearGradient>
    <pattern
       inkscape:stockid="Polka dots, medium"
       id="Polkadots-med"
       patternTransform="translate(0,0) scale(10,10)"
       height="10"
       width="10"
       patternUnits="userSpaceOnUse"
       inkscape:collect="always">
      <circle
         id="circle4772"
         r="0.15"
         cy="0.810"
         cx="2.567"
         style="fill:black;stroke:none" />
      <circle
         id="circle4774"
         r="0.15"
         cy="2.33"
         cx="3.048"
         style="fill:black;stroke:none" />
      <circle
         id="circle4776"
         r="0.15"
         cy="2.415"
         cx="4.418"
         style="fill:black;stroke:none" />
      <circle
         id="circle4778"
         r="0.15"
         cy="3.029"
         cx="1.844"
         style="fill:black;stroke:none" />
      <circle
         id="circle4780"
         r="0.15"
         cy="1.363"
         cx="6.08"
         style="fill:black;stroke:none" />
      <circle
         id="circle4782"
         r="0.15"
         cy="4.413"
         cx="5.819"
         style="fill:black;stroke:none" />
      <circle
         id="circle4784"
         r="0.15"
         cy="4.048"
         cx="4.305"
         style="fill:black;stroke:none" />
      <circle
         id="circle4786"
         r="0.15"
         cy="3.045"
         cx="5.541"
         style="fill:black;stroke:none" />
      <circle
         id="circle4788"
         r="0.15"
         cy="5.527"
         cx="4.785"
         style="fill:black;stroke:none" />
      <circle
         id="circle4790"
         r="0.15"
         cy="5.184"
         cx="2.667"
         style="fill:black;stroke:none" />
      <circle
         id="circle4792"
         r="0.15"
         cy="1.448"
         cx="7.965"
         style="fill:black;stroke:none" />
      <circle
         id="circle4794"
         r="0.15"
         cy="5.049"
         cx="7.047"
         style="fill:black;stroke:none" />
      <circle
         id="circle4796"
         r="0.15"
         cy="0.895"
         cx="4.340"
         style="fill:black;stroke:none" />
      <circle
         id="circle4798"
         r="0.15"
         cy="0.340"
         cx="7.125"
         style="fill:black;stroke:none" />
      <circle
         id="circle4800"
         r="0.15"
         cy="1.049"
         cx="9.553"
         style="fill:black;stroke:none" />
      <circle
         id="circle4802"
         r="0.15"
         cy="2.689"
         cx="7.006"
         style="fill:black;stroke:none" />
      <circle
         id="circle4804"
         r="0.15"
         cy="2.689"
         cx="8.909"
         style="fill:black;stroke:none" />
      <circle
         id="circle4806"
         r="0.15"
         cy="4.407"
         cx="9.315"
         style="fill:black;stroke:none" />
      <circle
         id="circle4808"
         r="0.15"
         cy="3.870"
         cx="7.820"
         style="fill:black;stroke:none" />
      <circle
         id="circle4810"
         r="0.15"
         cy="5.948"
         cx="8.270"
         style="fill:black;stroke:none" />
      <circle
         id="circle4812"
         r="0.15"
         cy="7.428"
         cx="7.973"
         style="fill:black;stroke:none" />
      <circle
         id="circle4814"
         r="0.15"
         cy="8.072"
         cx="9.342"
         style="fill:black;stroke:none" />
      <circle
         id="circle4816"
         r="0.15"
         cy="9.315"
         cx="8.206"
         style="fill:black;stroke:none" />
      <circle
         id="circle4818"
         r="0.15"
         cy="9.475"
         cx="9.682"
         style="fill:black;stroke:none" />
      <circle
         id="circle4820"
         r="0.15"
         cy="6.186"
         cx="9.688"
         style="fill:black;stroke:none" />
      <circle
         id="circle4822"
         r="0.15"
         cy="6.296"
         cx="3.379"
         style="fill:black;stroke:none" />
      <circle
         id="circle4824"
         r="0.15"
         cy="8.204"
         cx="2.871"
         style="fill:black;stroke:none" />
      <circle
         id="circle4826"
         r="0.15"
         cy="8.719"
         cx="4.59"
         style="fill:black;stroke:none" />
      <circle
         id="circle4828"
         r="0.15"
         cy="9.671"
         cx="3.181"
         style="fill:black;stroke:none" />
      <circle
         id="circle4830"
         r="0.15"
         cy="7.315"
         cx="5.734"
         style="fill:black;stroke:none" />
      <circle
         id="circle4832"
         r="0.15"
         cy="6.513"
         cx="6.707"
         style="fill:black;stroke:none" />
      <circle
         id="circle4834"
         r="0.15"
         cy="9.670"
         cx="5.730"
         style="fill:black;stroke:none" />
      <circle
         id="circle4836"
         r="0.15"
         cy="8.373"
         cx="6.535"
         style="fill:black;stroke:none" />
      <circle
         id="circle4838"
         r="0.15"
         cy="7.154"
         cx="4.37"
         style="fill:black;stroke:none" />
      <circle
         id="circle4840"
         r="0.15"
         cy="7.25"
         cx="0.622"
         style="fill:black;stroke:none" />
      <circle
         id="circle4842"
         r="0.15"
         cy="5.679"
         cx="0.831"
         style="fill:black;stroke:none" />
      <circle
         id="circle4844"
         r="0.15"
         cy="8.519"
         cx="1.257"
         style="fill:black;stroke:none" />
      <circle
         id="circle4846"
         r="0.15"
         cy="6.877"
         cx="1.989"
         style="fill:black;stroke:none" />
      <circle
         id="circle4848"
         r="0.15"
         cy="3.181"
         cx="0.374"
         style="fill:black;stroke:none" />
      <circle
         id="circle4850"
         r="0.15"
         cy="1.664"
         cx="1.166"
         style="fill:black;stroke:none" />
      <circle
         id="circle4852"
         r="0.15"
         cy="0.093"
         cx="1.151"
         style="fill:black;stroke:none" />
      <circle
         id="circle4854"
         r="0.15"
         cy="10.093"
         cx="1.151"
         style="fill:black;stroke:none" />
      <circle
         id="circle4856"
         r="0.15"
         cy="4.451"
         cx="1.302"
         style="fill:black;stroke:none" />
      <circle
         id="circle4858"
         r="0.15"
         cy="3.763"
         cx="3.047"
         style="fill:black;stroke:none" />
    </pattern>
    <radialGradient
       inkscape:collect="always"
       xlink:href="#linearGradient6011"
       id="radialGradient6019"
       cx="71.1278"
       cy="17.728857"
       fx="71.1278"
       fy="17.728857"
       r="2.1201172"
       gradientTransform="matrix(1,0,0,0.48595117,-7.9273879,917.60405)"
       gradientUnits="userSpaceOnUse" />
  </defs>
  <sodipodi:namedview
     id="base"
     pagecolor="#ffffff"
     bordercolor="#666666"
     borderopacity="1.0"
     inkscape:pageopacity="0.0"
     inkscape:pageshadow="2"
     inkscape:zoom="2.2299488"
     inkscape:cx="61.588791"
     inkscape:cy="66.918996"
     inkscape:document-units="px"
     inkscape:current-layer="layer1"
     showgrid="false"
     units="cm"
     inkscape:window-width="1280"
     inkscape:window-height="714"
     inkscape:window-x="-4"
     inkscape:window-y="-4"
     inkscape:window-maximized="1">
    <inkscape:grid
       type="xygrid"
       id="grid5827"
       empspacing="5"
       visible="true"
       enabled="true"
       snapvisiblegridlinesonly="true" />
  </sodipodi:namedview>
  <metadata
     id="metadata7">
    <rdf:RDF>
      <cc:Work
         rdf:about="">
        <dc:format>image/svg+xml</dc:format>
        <dc:type
           rdf:resource="http://purl.org/dc/dcmitype/StillImage" />
        <dc:title></dc:title>
      </cc:Work>
    </rdf:RDF>
  </metadata>
  <g
     inkscape:label="Ebene 1"
     inkscape:groupmode="layer"
     id="layer1"
     transform="translate(0,-910.62857)">
    <rect
       style="fill:#ffe59f;fill-opacity:1;fill-rule:evenodd;stroke:#000000;stroke-width:2;stroke-linecap:butt;stroke-linejoin:miter;stroke-miterlimit:4;stroke-opacity:1;stroke-dasharray:none"
       id="rect2985"
       width="58.077133"
       height="97.031021"
       x="15.223533"
       y="920.36237" />
    <path
       style="fill:none;stroke:#000000;stroke-width:2;stroke-linecap:butt;stroke-linejoin:miter;stroke-miterlimit:4;stroke-opacity:1;stroke-dasharray:none"
       d="m 43.375883,1034.8878 0,-94.35751"
       id="path3761"
       inkscape:connector-curvature="0" />
    <path
       style="fill:none;stroke:#000000;stroke-width:1;stroke-linecap:butt;stroke-linejoin:miter;stroke-miterlimit:4;stroke-opacity:1;stroke-dasharray:none"
       d="m 42.792491,1034.4088 35.714774,0"
       id="path3761-1"
       inkscape:connector-curvature="0" />
    <path
       style="fill:none;stroke:#000000;stroke-width:0.99999994;stroke-linecap:butt;stroke-linejoin:miter;stroke-miterlimit:4;stroke-opacity:1;stroke-dasharray:none"
       d="m 73.501705,926.11952 64.648895,0"
       id="path3761-1-7"
       inkscape:connector-curvature="0" />
    <path
       style="fill:none;stroke:#000000;stroke-width:1;stroke-linecap:butt;stroke-linejoin:miter;stroke-miterlimit:4;stroke-opacity:1;stroke-dasharray:none"
       d="m 115.27985,925.94796 0,107.35664"
       id="path3761-1-4"
       inkscape:connector-curvature="0" />
    <rect
       style="fill:#ffffff;fill-opacity:1;stroke:#000000;stroke-width:1;stroke-opacity:1"
       id="rect5683"
       width="9.9414339"
       height="20.40666"
       x="110.2993"
       y="958.56079" />
    <path
       style="fill:none;stroke:#000000;stroke-width:1;stroke-linecap:butt;stroke-linejoin:miter;stroke-miterlimit:4;stroke-opacity:1;stroke-dasharray:none"
       d="m 115.83543,1034.0245 -35.027407,0"
       id="path3761-1-8"
       inkscape:connector-curvature="0" />
    <path
       style="fill:none;stroke:#000000;stroke-width:1;stroke-linecap:butt;stroke-linejoin:miter;stroke-miterlimit:4;stroke-opacity:1;stroke-dasharray:none"
       d="m 78.083391,1039.9154 0,-11.1788"
       id="path3761-1-8-8"
       inkscape:connector-curvature="0" />
    <path
       style="fill:none;stroke:#000000;stroke-width:0.99999994;stroke-linecap:butt;stroke-linejoin:miter;stroke-miterlimit:4;stroke-opacity:1;stroke-dasharray:none"
       d="m 80.244189,1036.5162 0,-4.9869"
       id="path3761-1-8-2"
       inkscape:connector-curvature="0" />
    <path
       style="fill:none;stroke:#000000;stroke-width:1;stroke-linecap:butt;stroke-linejoin:miter;stroke-miterlimit:4;stroke-opacity:1;stroke-dasharray:none"
       d="m 60.601958,1034.4695 0,6.4912"
       id="path3761-1-77"
       inkscape:connector-curvature="0" />
    <path
       style="fill:none;stroke:#000000;stroke-width:1;stroke-linecap:butt;stroke-linejoin:miter;stroke-miterlimit:4;stroke-opacity:1;stroke-dasharray:none"
       d="m 54.475355,1041.4326 11.511802,0"
       id="path3761-1-1"
       inkscape:connector-curvature="0" />
    <path
       style="fill:none;stroke:#000000;stroke-width:0.99999994;stroke-linecap:butt;stroke-linejoin:miter;stroke-miterlimit:4;stroke-opacity:1;stroke-dasharray:none"
       d="m 56.929168,1044.0909 6.982602,0"
       id="path3761-1-1-2"
       inkscape:connector-curvature="0" />
    <path
       style="fill:none;stroke:#000000;stroke-width:0.99999994;stroke-linecap:butt;stroke-linejoin:miter;stroke-miterlimit:4;stroke-opacity:1;stroke-dasharray:none"
       d="m 58.874114,1046.681 3.339279,0"
       id="path3761-1-1-2-6"
       inkscape:connector-curvature="0" />
    <path
       style="fill:none;stroke:#000000;stroke-width:1;stroke-linecap:butt;stroke-linejoin:miter;stroke-miterlimit:4;stroke-opacity:1;stroke-dasharray:none"
       d="m 137.6012,931.95462 0,-11.17879"
       id="path3761-1-8-8-9"
       inkscape:connector-curvature="0" />
    <path
       style="fill:none;stroke:#000000;stroke-width:1;stroke-linecap:butt;stroke-linejoin:miter;stroke-miterlimit:4;stroke-opacity:1;stroke-dasharray:none"
       d="m 140.23069,932.03175 0,-11.1788"
       id="path3761-1-8-8-9-4"
       inkscape:connector-curvature="0" />
    <path
       style="fill:none;stroke:#000000;stroke-width:1;stroke-linecap:butt;stroke-linejoin:miter;stroke-miterlimit:4;stroke-opacity:1;stroke-dasharray:none"
       d="m 140.56162,926.11472 10.04662,0"
       id="path3761-1-7-6"
       inkscape:connector-curvature="0" />
    <path
       sodipodi:type="arc"
       style="fill:#ffffff;fill-opacity:1;fill-rule:evenodd;stroke:#000000;stroke-width:0.85704517;stroke-opacity:1"
       id="path5999"
       sodipodi:cx="67.065704"
       sodipodi:cy="18.776134"
       sodipodi:rx="1.1098342"
       sodipodi:ry="1.1098342"
       d="m 68.175539,18.776134 a 1.1098342,1.1098342 0 1 1 -2.219669,0 1.1098342,1.1098342 0 1 1 2.219669,0 z"
       transform="matrix(1.1667837,0,0,1.1668156,72.865031,904.20648)" />
    <text
       xml:space="preserve"
       style="font-size:46.67198181px;font-style:normal;font-weight:normal;line-height:125%;letter-spacing:0px;word-spacing:0px;fill:#ff0000;fill-opacity:1;stroke:none;font-family:Sans"
       x="58.777573"
       y="929.82324"
       id="text6001"
       sodipodi:linespacing="125%"
       transform="scale(0.99998631,1.0000137)"><tspan
         sodipodi:role="line"
         id="tspan6003"
         x="58.777573"
         y="929.82324"
         style="font-size:18.66879463px;fill:#ff0000;fill-opacity:1;stroke:none">-</tspan></text>
    <text
       xml:space="preserve"
       style="font-size:46.67198181px;font-style:normal;font-weight:normal;line-height:125%;letter-spacing:0px;word-spacing:0px;fill:#ff0000;fill-opacity:1;stroke:none;font-family:Sans"
       x="45.456898"
       y="949.24591"
       id="text6001-0"
       sodipodi:linespacing="125%"
       transform="scale(0.99998631,1.0000137)"><tspan
         sodipodi:role="line"
         id="tspan6003-3"
         x="45.456898"
         y="949.24591"
         style="font-size:14.0015955px;fill:#ff0000;fill-opacity:1;stroke:none">+</tspan></text>
    <path
       style="fill:none;stroke:#000000;stroke-width:0.5;stroke-linecap:butt;stroke-linejoin:miter;stroke-miterlimit:4;stroke-opacity:1;stroke-dasharray:none"
       d="m 155.71202,933.02312 c 1.72658,0 3.45317,0 5.17975,0 0.24665,0 0.4933,0 0.73996,0 0.12333,0 0.36998,-0.12334 0.36998,0 0,0.12332 -0.4933,0 -0.36998,0 0.24667,0 0.49331,0 0.73997,0"
       id="path6042"
       inkscape:connector-curvature="0" />
    <path
       style="fill:none;stroke:#000000;stroke-width:0.5;stroke-linecap:butt;stroke-linejoin:miter;stroke-miterlimit:4;stroke-opacity:1;stroke-dasharray:none"
       d="m 162.18671,933.06936 c 0,-0.13874 0,-0.27749 0,-0.41624 0,-0.0308 0,-0.0617 0,-0.0926 0,-0.0154 0.004,-0.0316 0,-0.0462 -0.0106,-0.0326 -0.0379,-0.0591 -0.0462,-0.0926 -0.0117,-0.0448 0,-0.0926 0,-0.13874 0,-0.12334 0,-0.24666 0,-0.37 0,-0.27749 0,-0.55498 0,-0.83249 0,-0.13874 0,-0.27749 0,-0.41624 0,-0.0462 0,-0.0925 0,-0.13874 0,-0.0462 -0.008,-0.0931 0,-0.13875 0.0159,-0.0961 0.0733,-0.18188 0.0925,-0.27749 0.005,-0.0302 -0.004,-0.0621 0,-0.0925 0.0106,-0.0626 0.0372,-0.12207 0.0462,-0.185 0.007,-0.0457 0,-0.0925 0,-0.13874 0,-0.10794 0,-0.21583 0,-0.32375 0,-0.0462 -0.01,-0.0933 0,-0.13875 0.007,-0.0338 0.0379,-0.0591 0.0462,-0.0926 0.007,-0.0299 0,-0.0616 0,-0.0925 0,-0.10794 0,-0.21583 0,-0.32375 0,-0.26207 0,-0.52416 0,-0.78624 0,-0.0772 0,-0.15415 0,-0.23123 0,-0.0462 -0.008,-0.0931 0,-0.13875 0.008,-0.048 0.0344,-0.0915 0.0462,-0.13875 0.003,-0.0149 0,-0.0308 0,-0.0462 0,-0.0462 -0.009,-0.0931 0,-0.13873 0.008,-0.0481 0.0367,-0.0909 0.0462,-0.13875 0.0178,-0.0889 -0.0179,-0.18856 0,-0.27749 0.01,-0.0478 0.0383,-0.0907 0.0462,-0.13876 0.0106,-0.0621 0,-0.29986 0,-0.36999 0,-0.0308 -0.005,-0.0623 0,-0.0926 0.01,-0.0478 0.0383,-0.0907 0.0462,-0.13874 0.009,-0.0456 0,-0.0926 0,-0.13875 0,-0.10793 0,-0.21584 0,-0.32375 0,-0.0462 -0.007,-0.093 0,-0.13875 0.01,-0.0629 0.0358,-0.1223 0.0462,-0.185 0.004,-0.0304 0,-0.0617 0,-0.0925 0,-0.0462 0,-0.0925 0,-0.13875 0,-0.13874 0,-0.27749 0,-0.41624 0,-0.0765 -0.0106,-0.2611 0,-0.32374 0.008,-0.048 0.0367,-0.0909 0.0462,-0.13874 0.0121,-0.0605 0,-0.12334 0,-0.185 0,-0.13875 0,-0.2775 0,-0.41624 0,-0.24666 0,-0.49333 0,-0.73998 0,-0.0925 0,-0.185 0,-0.2775 0,-0.0462 -0.01,-0.0933 0,-0.13875 0.007,-0.0338 0.0379,-0.059 0.0462,-0.0925 0.007,-0.0299 0,-0.0618 0,-0.0926 0,-0.0462 0,-0.0926 0,-0.13874 0,-0.0154 -0.003,-0.0312 0,-0.0462 0.0118,-0.0473 0.0308,-0.0925 0.0462,-0.13874 0.0154,-0.0462 0.0281,-0.0934 0.0462,-0.13875 0.0129,-0.032 0.0335,-0.0605 0.0462,-0.0925 0.0361,-0.0906 0.0562,-0.18697 0.0926,-0.2775 0.0632,-0.15806 0.059,-0.0429 0.0925,-0.27749 0.007,-0.0457 0,-0.0925 0,-0.13874 0,-0.12333 0,-0.24666 0,-0.37 0,-0.0462 -0.008,-0.0931 0,-0.13875 0.009,-0.048 0.0367,-0.0909 0.0462,-0.13874 0.005,-0.0302 0,-0.0617 0,-0.0926 0,-0.0462 0,-0.0925 0,-0.13873 0,-0.13875 0,-0.27749 0,-0.41624 0,-0.0616 -0.0106,-0.12418 0,-0.185 0.005,-0.0339 0.0394,-0.0587 0.0462,-0.0926 0.0182,-0.0907 -0.0181,-0.18679 0,-0.27749 0.007,-0.0338 0.0335,-0.0605 0.0462,-0.0925 0.0181,-0.0453 0.0281,-0.0934 0.0462,-0.13876 0.0129,-0.032 0.0379,-0.0591 0.0462,-0.0926 0.0529,-0.21167 -0.0934,0.0481 0.0462,-0.23125 0.0918,-0.18356 0.0146,0.2044 0.0926,-0.185 0.01,-0.0454 0,-0.0926 0,-0.13875 0,-0.10792 0,-0.21583 0,-0.32374 0,-0.32375 0,-0.64747 0,-0.97122 0.0464,0.0926 0.0985,0.18238 0.13937,0.27743 0.005,0.0149 0,0.18196 0,0.185 0,0.0926 0,0.185 0,0.2775 0,0.33916 0,0.67832 0,1.01748 0,1.15622 0,2.31243 0,3.46867 0,0.29291 0,0.58582 0,0.87873 0,0.0908 -0.0106,0.34162 0,0.41624 0.007,0.0483 0.0367,0.0909 0.0462,0.13874 0.005,0.0302 0,0.0618 0,0.0926 0,0.16478 0,0.13991 0,0.32374 0,0.0308 -0.005,0.0623 0,0.0926 0.0266,0.13275 0.11645,0.23645 0.13874,0.37 0.01,0.0586 0,0.36324 0,0.41624 0,0.0462 -0.01,0.0933 0,0.13875 0.007,0.0338 0.0406,0.0584 0.0462,0.0925 0.0106,0.0608 0,0.12333 0,0.18499 0,0.0308 -0.005,0.0623 0,0.0926 0.10991,0.54983 -0.0224,-0.36594 0.0926,0.32375 0.004,0.0304 0,0.0618 0,0.0925 0,0.0462 -0.008,0.0931 0,0.13875 0.008,0.048 0.0368,0.0909 0.0462,0.13874 0.005,0.0302 0,0.0617 0,0.0926 0,0.12332 0,0.24664 0,0.36998 0,0.0462 0,0.0926 0,0.13874 0,0.0154 -0.003,0.0312 0,0.0462 0.0118,0.0473 0.0367,0.0909 0.0462,0.13875 0.0121,0.0605 -0.0149,0.12517 0,0.185 0.009,0.0335 0.0354,0.0597 0.0462,0.0925 0.004,0.0146 0,0.0308 0,0.0462 0,0.0575 -0.01,0.26864 0,0.32374 0.008,0.048 0.0344,0.0915 0.0462,0.13875 0.003,0.0149 0,0.0308 0,0.0462 0,0.0462 -0.01,0.0933 0,0.13874 0.007,0.0338 0.0308,0.0616 0.0462,0.0926 0.0154,0.0462 0.0383,0.0907 0.0462,0.13873 0.009,0.0456 -0.0117,0.094 0,0.13875 0.005,0.0212 0.0308,0.0308 0.0462,0.0462 0.0154,0.0308 0.0395,0.0587 0.0462,0.0926 0.01,0.0454 0,0.0926 0,0.13874 0,0.0154 -0.004,0.0317 0,0.0463 0.0559,0.16766 0.0219,0.0329 0.0926,0.13874 0.0191,0.0287 0.0308,0.0617 0.0462,0.0925 0.0154,0.0308 0.0379,0.0591 0.0462,0.0926 0.007,0.03 -0.007,0.0625 0,0.0926 0.008,0.0334 0.0308,0.0616 0.0462,0.0925 0.0308,0.0617 0.0618,0.12334 0.0926,0.185 0.0308,0.0618 0.0617,0.12333 0.0926,0.185 0.0154,0.0308 0.0255,0.0648 0.0462,0.0925 0.0261,0.0349 0.07,0.0551 0.0926,0.0925 0.0251,0.0418 0.017,0.0998 0.0462,0.13875 0.0206,0.0275 0.0681,0.0218 0.0926,0.0462 0.0488,0.0488 0.0511,0.12984 0.0925,0.185 0.0261,0.0349 0.0663,0.0576 0.0926,0.0926 0.0414,0.0552 0.0542,0.12763 0.0926,0.185 0.0121,0.0181 0.0342,0.0282 0.0462,0.0462 0.0191,0.0287 0.0255,0.0648 0.0462,0.0926 0.0392,0.0523 0.10246,0.0844 0.13875,0.13874 0.0191,0.0287 0.0335,0.0605 0.0462,0.0926 0.0181,0.0453 0.017,0.0998 0.0462,0.13874 0.0206,0.0275 0.0648,0.0255 0.0926,0.0462 0.0349,0.0261 0.0664,0.0576 0.0926,0.0926 0.0413,0.0552 0.0438,0.13623 0.0926,0.185 0.0243,0.0243 0.0681,0.0218 0.0926,0.0462 0.0243,0.0244 0.0255,0.0648 0.0462,0.0926 0.0262,0.0349 0.0682,0.0562 0.0926,0.0926 0.008,0.0129 -0.007,0.0324 0,0.0462 0.0277,0.0555 0.11096,0.0832 0.13874,0.13875 0.007,0.0138 -0.007,0.0324 0,0.0462 0.0195,0.039 0.0788,0.0511 0.0926,0.0926 0.01,0.0293 -0.0218,0.0707 0,0.0926 0.0218,0.0218 0.0669,-0.0171 0.0926,0 0.0287,0.0191 0.0271,0.0638 0.0462,0.0925 0.0121,0.0181 0.0366,0.0267 0.0462,0.0462 0.007,0.0137 -0.0106,0.0354 0,0.0462 0.0243,0.0245 0.0648,0.0255 0.0925,0.0462 0.0199,0.0149 0.15695,0.17097 0.18499,0.185 0.0137,0.007 0.0324,-0.007 0.0462,0 0.039,0.0195 0.0536,0.0729 0.0926,0.0925 0.037,0.0186 0.10172,-0.0185 0.13875,0 0.0138,0.007 -0.0106,0.0354 0,0.0462 0.003,0.002 0.17636,0.0867 0.18498,0.0926 0.0214,0.0142 0.0712,0.0783 0.0925,0.0925 0.15721,0.1048 0.0249,0.005 0.185,0.0462 0.0335,0.009 0.0617,0.0308 0.0925,0.0462 0.0308,0.0154 0.0648,0.0255 0.0926,0.0463 0.0349,0.0261 0.0521,0.0763 0.0926,0.0926 0.20554,0.0823 0.0754,-0.0274 0.18499,0 0.0473,0.0118 0.0934,0.0281 0.13875,0.0462 0.11072,0.0443 0.12047,0.0945 0.23123,0.13876 0.0436,0.1147 0.1247,0.0261 0.185,0.0462 0.0326,0.0106 0.0618,0.0308 0.0926,0.0462 0.0308,0.0154 0.0638,0.0271 0.0926,0.0462 0.0846,0.0564 0.004,0.0589 0.13875,0.0926 0.0299,0.007 0.0617,0 0.0926,0 0.0154,0 0.0324,-0.007 0.0462,0 0.21165,0.10587 -0.19625,-0.0191 0.13874,0.0925 0.0293,0.01 0.0617,0 0.0926,0 0.0772,0 0.15416,0 0.23124,0 0.2004,0 0.40081,0 0.60122,0"
       id="path6058"
       inkscape:connector-curvature="0" />
    <path
       style="fill:none;stroke:#000000;stroke-width:0.5;stroke-linecap:butt;stroke-linejoin:miter;stroke-miterlimit:4;stroke-opacity:1;stroke-dasharray:none"
       d="m 169.77133,933.30061 c 0.41623,0 0.83246,0 1.24869,0 0.0926,0 0.18499,0 0.27749,0 0.0308,0 0.0618,0 0.0926,0 0.0308,0 0.0632,0.01 0.0926,0 0.0206,-0.007 0.0267,-0.0366 0.0462,-0.0462 0.0246,-0.0122 0.19977,0.0106 0.23124,0 0.0206,-0.007 0.0267,-0.0366 0.0462,-0.0462 0.014,-0.007 0.15305,0 0.18499,0 0.18499,0 0.36999,0 0.55498,0 0.51243,0 1.25801,0 1.61866,0"
       id="path6060"
       inkscape:connector-curvature="0" />
    <text
       xml:space="preserve"
       style="font-size:40px;font-style:normal;font-weight:normal;line-height:125%;letter-spacing:0px;word-spacing:0px;fill:#000000;fill-opacity:1;stroke:none;font-family:Sans"
       x="19.112682"
       y="1006.4856"
       id="text6276"
       sodipodi:linespacing="125%"><tspan
         sodipodi:role="line"
         id="tspan6278"
         x="19.112682"
         y="1006.4856"
         style="font-size:10px">CH<tspan
   style="font-size:10px;baseline-shift:sub"
   id="tspan6280">4</tspan></tspan></text>
    <rect
       style="fill:#00ff00;fill-opacity:1;fill-rule:evenodd;stroke:none;stroke-width:0.50000000000000000;stroke-linecap:butt;stroke-linejoin:miter;stroke-miterlimit:4;stroke-opacity:1;stroke-dasharray:none"
       id="rect6282"
       width="23.31892"
       height="4.4844079"
       x="47.534721"
       y="101.37261"
       transform="translate(0,910.62857)" />
  </g>
</svg>
