<?xml version="1.0" encoding="UTF-8" standalone="no"?>
<!-- Created with Inkscape (http://www.inkscape.org/) -->

<svg
   xmlns:dc="http://purl.org/dc/elements/1.1/"
   xmlns:cc="http://creativecommons.org/ns#"
   xmlns:rdf="http://www.w3.org/1999/02/22-rdf-syntax-ns#"
   xmlns:svg="http://www.w3.org/2000/svg"
   xmlns="http://www.w3.org/2000/svg"
   xmlns:sodipodi="http://sodipodi.sourceforge.net/DTD/sodipodi-0.dtd"
   xmlns:inkscape="http://www.inkscape.org/namespaces/inkscape"
   width="744.09003"
   height="420"
   id="svg2"
   version="1.1"
   inkscape:version="0.48.2 r9819"
   sodipodi:docname="aufbau.pdf">
  <sodipodi:namedview
     id="base"
     pagecolor="#ffffff"
     bordercolor="#666666"
     borderopacity="1.0"
     inkscape:pageopacity="0.0"
     inkscape:pageshadow="2"
     inkscape:zoom="0.74246212"
     inkscape:cx="317.63657"
     inkscape:cy="250.86557"
     inkscape:document-units="px"
     inkscape:current-layer="layer1"
     showgrid="false"
     inkscape:window-width="1280"
     inkscape:window-height="714"
     inkscape:window-x="-4"
     inkscape:window-y="-4"
     inkscape:window-maximized="1"
     inkscape:snap-bbox="true">
    <inkscape:grid
       snapvisiblegridlinesonly="true"
       enabled="true"
       visible="true"
       empspacing="5"
       id="grid3855"
       type="xygrid" />
  </sodipodi:namedview>
  <defs
     id="defs4">
    <marker
       style="overflow:visible"
       id="Tail"
       refX="0"
       refY="0"
       orient="auto"
       inkscape:stockid="Tail">
      <g
         transform="scale(-1.2,-1.2)"
         id="g3955">
        <path
           style="fill:none;stroke:#000000;stroke-width:0.80000001;stroke-linecap:round;marker-start:none;marker-end:none"
           d="M -3.8048674,-3.9585227 0.54352094,0"
           id="path3957"
           inkscape:connector-curvature="0" />
        <path
           style="fill:none;stroke:#000000;stroke-width:0.80000001;stroke-linecap:round;marker-start:none;marker-end:none"
           d="M -1.2866832,-3.9585227 3.0617053,0"
           id="path3959"
           inkscape:connector-curvature="0" />
        <path
           style="fill:none;stroke:#000000;stroke-width:0.80000001;stroke-linecap:round;marker-start:none;marker-end:none"
           d="M 1.3053582,-3.9585227 5.6537466,0"
           id="path3961"
           inkscape:connector-curvature="0" />
        <path
           style="fill:none;stroke:#000000;stroke-width:0.80000001;stroke-linecap:round;marker-start:none;marker-end:none"
           d="M -3.8048674,4.1775838 0.54352094,0.21974226"
           id="path3963"
           inkscape:connector-curvature="0" />
        <path
           style="fill:none;stroke:#000000;stroke-width:0.80000001;stroke-linecap:round;marker-start:none;marker-end:none"
           d="M -1.2866832,4.1775838 3.0617053,0.21974226"
           id="path3965"
           inkscape:connector-curvature="0" />
        <path
           style="fill:none;stroke:#000000;stroke-width:0.80000001;stroke-linecap:round;marker-start:none;marker-end:none"
           d="M 1.3053582,4.1775838 5.6537466,0.21974226"
           id="path3967"
           inkscape:connector-curvature="0" />
      </g>
    </marker>
    <marker
       style="overflow:visible"
       id="Arrow1Lstart"
       refX="0"
       refY="0"
       orient="auto"
       inkscape:stockid="Arrow1Lstart">
      <path
         transform="matrix(0.8,0,0,0.8,10,0)"
         style="fill-rule:evenodd;stroke:#000000;stroke-width:1pt;marker-start:none"
         d="M 0,0 5,-5 -12.5,0 5,5 0,0 z"
         id="path3919"
         inkscape:connector-curvature="0" />
    </marker>
    <marker
       style="overflow:visible"
       id="Arrow2Lend"
       refX="0"
       refY="0"
       orient="auto"
       inkscape:stockid="Arrow2Lend">
      <path
         inkscape:connector-curvature="0"
         transform="matrix(-1.1,0,0,-1.1,-1.1,0)"
         d="M 8.7185878,4.0337352 -2.2072895,0.01601326 8.7185884,-4.0017078 c -1.7454984,2.3720609 -1.7354408,5.6174519 -6e-7,8.035443 z"
         style="font-size:12px;fill-rule:evenodd;stroke-width:0.625;stroke-linejoin:round"
         id="path4066" />
    </marker>
    <marker
       style="overflow:visible"
       id="Arrow2Lend-7"
       refX="0"
       refY="0"
       orient="auto"
       inkscape:stockid="Arrow2Lend">
      <path
         transform="matrix(-1.1,0,0,-1.1,-1.1,0)"
         d="M 8.7185878,4.0337352 -2.2072895,0.01601326 8.7185884,-4.0017078 c -1.7454984,2.3720609 -1.7354408,5.6174519 -6e-7,8.035443 z"
         style="font-size:12px;fill-rule:evenodd;stroke-width:0.625;stroke-linejoin:round"
         id="path4066-6"
         inkscape:connector-curvature="0" />
    </marker>
    <marker
       style="overflow:visible"
       id="Arrow2Lend-4"
       refX="0"
       refY="0"
       orient="auto"
       inkscape:stockid="Arrow2Lend">
      <path
         transform="matrix(-1.1,0,0,-1.1,-1.1,0)"
         d="M 8.7185878,4.0337352 -2.2072895,0.01601326 8.7185884,-4.0017078 c -1.7454984,2.3720609 -1.7354408,5.6174519 -6e-7,8.035443 z"
         style="font-size:12px;fill-rule:evenodd;stroke-width:0.625;stroke-linejoin:round"
         id="path4066-2"
         inkscape:connector-curvature="0" />
    </marker>
    <marker
       style="overflow:visible"
       id="Arrow2Lend-2"
       refX="0"
       refY="0"
       orient="auto"
       inkscape:stockid="Arrow2Lend">
      <path
         transform="matrix(-1.1,0,0,-1.1,-1.1,0)"
         d="M 8.7185878,4.0337352 -2.2072895,0.01601326 8.7185884,-4.0017078 c -1.7454984,2.3720609 -1.7354408,5.6174519 -6e-7,8.035443 z"
         style="font-size:12px;fill-rule:evenodd;stroke-width:0.625;stroke-linejoin:round"
         id="path4066-21"
         inkscape:connector-curvature="0" />
    </marker>
    <marker
       style="overflow:visible"
       id="Arrow2Lend-1"
       refX="0"
       refY="0"
       orient="auto"
       inkscape:stockid="Arrow2Lend">
      <path
         inkscape:connector-curvature="0"
         transform="matrix(-1.1,0,0,-1.1,-1.1,0)"
         d="M 8.7185878,4.0337352 -2.2072895,0.01601326 8.7185884,-4.0017078 c -1.7454984,2.3720609 -1.7354408,5.6174519 -6e-7,8.035443 z"
         style="font-size:12px;fill-rule:evenodd;stroke-width:0.625;stroke-linejoin:round"
         id="path4066-7" />
    </marker>
  </defs>
  <metadata
     id="metadata7">
    <rdf:RDF>
      <cc:Work
         rdf:about="">
        <dc:format>image/svg+xml</dc:format>
        <dc:type
           rdf:resource="http://purl.org/dc/dcmitype/StillImage" />
        <dc:title></dc:title>
      </cc:Work>
    </rdf:RDF>
  </metadata>
  <g
     transform="translate(0,-632.36218)"
     id="layer1"
     inkscape:groupmode="layer"
     inkscape:label="Ebene 1">
    <rect
       y="749.02887"
       x="193.33334"
       height="40.5"
       width="189.57143"
       id="rect2985-8"
       style="fill:#ced7dd;fill-opacity:1;fill-rule:evenodd;stroke:#000000;stroke-width:0.99999994;stroke-opacity:1" />
    <path
       transform="matrix(0.51602932,0,0,0.52861928,-192.77537,606.54094)"
       d="m 523.33332,307.42783 c 0,17.48901 -14.17765,31.66666 -31.66666,31.66666 -17.48902,0 -31.66667,-14.17765 -31.66667,-31.66666 0,-17.48902 14.17765,-31.66667 31.66667,-31.66667 17.48901,0 31.66666,14.17765 31.66666,31.66667 z"
       sodipodi:ry="31.666666"
       sodipodi:rx="31.666666"
       sodipodi:cy="307.42783"
       sodipodi:cx="491.66666"
       id="path3779"
       style="fill:#ffff25;fill-opacity:1;fill-rule:evenodd;stroke:#000000;stroke-width:5.74397516;stroke-linecap:butt;stroke-linejoin:miter;stroke-miterlimit:4;stroke-opacity:1;stroke-dasharray:none"
       sodipodi:type="arc" />
    <rect
       y="729.02887"
       x="611.90472"
       height="170"
       width="80"
       id="rect3815"
       style="fill:#aa0000;fill-opacity:1;fill-rule:evenodd;stroke:#000000;stroke-width:2.99999976;stroke-linecap:butt;stroke-linejoin:miter;stroke-miterlimit:4;stroke-opacity:1;stroke-dasharray:none" />
    <rect
       y="959.02893"
       x="611.90472"
       height="48.5"
       width="78.5"
       id="rect3817"
       style="fill:#00ff00;fill-opacity:1;fill-rule:evenodd;stroke:#000000;stroke-width:2.99999976;stroke-linecap:butt;stroke-linejoin:miter;stroke-miterlimit:4;stroke-opacity:1;stroke-dasharray:none" />
    <text
       sodipodi:linespacing="125%"
       id="text3819-4"
       y="765.14789"
       x="290.84433"
       style="font-size:14px;font-style:normal;font-weight:normal;text-align:center;line-height:125%;letter-spacing:0px;word-spacing:0px;text-anchor:middle;fill:#000000;fill-opacity:1;stroke:none;font-family:Sans"
       xml:space="preserve"><tspan
         style="font-size:14px;text-align:center;text-anchor:middle"
         y="765.14789"
         x="292.78574"
         id="tspan3821-0"
         sodipodi:role="line">NaJ-Szintillationszähler + </tspan><tspan
         style="font-size:14px;text-align:center;text-anchor:middle"
         id="tspan3823-9"
         y="782.64789"
         x="290.84433"
         sodipodi:role="line">Vorverstärker</tspan></text>
    <rect
       y="739.02887"
       x="431.90479"
       height="100"
       width="78.5"
       id="rect3773-4"
       style="fill:#808000;fill-opacity:1;fill-rule:evenodd;stroke:#000000;stroke-width:2.99999976;stroke-linecap:butt;stroke-linejoin:miter;stroke-miterlimit:4;stroke-opacity:1;stroke-dasharray:none" />
    <text
       sodipodi:linespacing="125%"
       id="text3895"
       y="771.52887"
       x="470.40479"
       style="font-size:14px;font-style:normal;font-weight:normal;text-align:center;line-height:125%;letter-spacing:0px;word-spacing:0px;text-anchor:middle;fill:#000000;fill-opacity:1;stroke:none;font-family:Sans"
       xml:space="preserve"><tspan
         y="771.52887"
         x="470.40479"
         id="tspan3897"
         sodipodi:role="line">Amplifier</tspan></text>
    <text
       sodipodi:linespacing="125%"
       id="text3945"
       y="321.83838"
       x="301.95239"
       style="font-size:40px;font-style:normal;font-weight:normal;line-height:125%;letter-spacing:0px;word-spacing:0px;fill:#000000;fill-opacity:1;stroke:none;font-family:Sans"
       xml:space="preserve"><tspan
         y="321.83838"
         x="301.95239"
         id="tspan3947"
         sodipodi:role="line" /></text>
    <text
       sodipodi:linespacing="125%"
       id="text3965"
       y="816.10028"
       x="652.30951"
       style="font-size:14px;font-style:normal;font-weight:normal;text-align:center;line-height:125%;letter-spacing:0px;word-spacing:0px;text-anchor:middle;fill:#000000;fill-opacity:1;stroke:none;font-family:Sans"
       xml:space="preserve"><tspan
         y="816.10028"
         x="652.30951"
         id="tspan3967"
         sodipodi:role="line">MCA</tspan></text>
    <text
       sodipodi:linespacing="125%"
       id="text3969"
       y="986.10022"
       x="652.30951"
       style="font-size:14px;font-style:normal;font-weight:normal;text-align:center;line-height:125%;letter-spacing:0px;word-spacing:0px;text-anchor:middle;fill:#000000;fill-opacity:1;stroke:none;font-family:Sans"
       xml:space="preserve"><tspan
         y="986.10022"
         x="652.30951"
         id="tspan3971"
         sodipodi:role="line">computer</tspan></text>
    <flowRoot
       transform="translate(21,-1)"
       style="font-size:40px;font-style:normal;font-weight:normal;line-height:125%;letter-spacing:0px;word-spacing:0px;fill:#000000;fill-opacity:1;stroke:none;font-family:Sans"
       id="flowRoot3973"
       xml:space="preserve"><flowRegion
         id="flowRegion3975"><rect
           y="646.64789"
           x="465.71429"
           height="70.476189"
           width="73.333336"
           id="rect3977" /></flowRegion><flowPara
         id="flowPara3979" /></flowRoot>    <path
       inkscape:connector-curvature="0"
       id="path3985"
       d="m 381.90476,769.02885 50,0"
       style="fill:none;stroke:#000000;stroke-width:1px;stroke-linecap:butt;stroke-linejoin:miter;stroke-opacity:1;marker-end:url(#Arrow2Lend)" />
    <rect
       y="669.02887"
       x="341.90479"
       height="50"
       width="40"
       id="rect3993-5"
       style="fill:#b3b3b3;fill-opacity:1;fill-rule:evenodd;stroke:#000000;stroke-width:2;stroke-linecap:butt;stroke-linejoin:miter;stroke-miterlimit:4;stroke-opacity:1;stroke-dasharray:none" />
    <text
       sodipodi:linespacing="125%"
       id="text4013-1"
       y="697.11871"
       x="361.1665"
       style="font-size:14px;font-style:normal;font-weight:normal;text-align:center;line-height:125%;letter-spacing:0px;word-spacing:0px;text-anchor:middle;fill:#000000;fill-opacity:1;stroke:none;font-family:Sans"
       xml:space="preserve"><tspan
         y="697.11871"
         x="361.1665"
         id="tspan4015-7"
         sodipodi:role="line">HV</tspan></text>
    <text
       sodipodi:linespacing="125%"
       id="text5344"
       y="759.24463"
       x="544.44531"
       style="font-size:14px;font-style:normal;font-weight:normal;text-align:center;line-height:125%;letter-spacing:0px;word-spacing:0px;text-anchor:middle;fill:#000000;fill-opacity:1;stroke:none;font-family:Sans"
       xml:space="preserve"><tspan
         y="759.24463"
         x="544.44531"
         id="tspan5346"
         sodipodi:role="line">unipolar</tspan></text>
    <path
       inkscape:connector-curvature="0"
       id="path5926"
       d="m 651.90476,899.02885 0,60.00006"
       style="fill:none;stroke:#000000;stroke-width:1px;stroke-linecap:butt;stroke-linejoin:miter;stroke-opacity:1;marker-end:url(#Arrow2Lend-2)" />
    <path
       inkscape:connector-curvature="0"
       id="path6536"
       d="m 361.90476,719.02885 0,30"
       style="fill:none;stroke:#000000;stroke-width:1px;stroke-linecap:butt;stroke-linejoin:miter;stroke-opacity:1;marker-end:url(#Arrow2Lend-2)" />
    <path
       inkscape:connector-curvature="0"
       id="path3985-4"
       d="m 511.90477,769.02885 98.4807,0"
       style="fill:none;stroke:#000000;stroke-width:1px;stroke-linecap:butt;stroke-linejoin:miter;stroke-opacity:1;marker-end:url(#Arrow2Lend)" />
    <path
       inkscape:connector-curvature="0"
       style="fill:none;stroke:#000000;stroke-width:3;stroke-linecap:butt;stroke-linejoin:miter;stroke-miterlimit:100;stroke-opacity:1;stroke-dasharray:none;marker-mid:none;marker-end:none"
       d="m 89.333332,767.50421 c 0.91867,-1.03039 1.83734,-2.03792 2.756,-2.52106 0.91867,-0.48313 1.83734,-0.41849 2.75601,0.15928 0.91867,0.57779 1.83733,1.64588 2.756,2.67029 0.91867,1.02441 1.837337,1.96038 2.755998,2.34228 0.91867,0.38191 1.83734,0.19064 2.75601,-0.476 0.91867,-0.66663 1.83734,-1.78178 2.75601,-2.7882 0.91867,-1.00642 1.83733,-1.85984 2.756,-2.13604 0.91867,-0.27619 1.83734,0.0395 2.756,0.78713 0.91867,0.74768 1.83734,1.8968 2.75601,2.87343 0.91866,0.97663 1.83733,1.73751 2.756,1.90475 0.91867,0.16725 1.83734,-0.26908 2.75601,-1.08902 0.91866,-0.81995 1.83733,-1.98958 2.756,-2.92497 0.91866,-0.9354 1.83733,-1.5948 2.756,-1.65114 0.91867,-0.0564 1.83734,0.49555 2.75601,1.37816 0.91866,0.88261 1.83733,2.05904 2.756,2.94222 0.91866,0.88318 1.83733,1.43338 2.756,1.37815 0.91867,-0.0552 1.83734,-0.71621 2.756,-1.65113 0.91867,-0.93492 1.83734,-2.10434 2.75601,-2.92497 0.91866,-0.82062 1.83733,-1.25517 2.756,-1.08902 0.91867,0.16614 1.83733,0.92847 2.756,1.90475 0.91867,0.97627 1.83734,2.12498 2.75601,2.87342 0.91867,0.74845 1.83734,1.06225 2.756,0.78713 0.91867,-0.27511 1.83734,-1.12985 2.75601,-2.13603 0.91867,-1.00618 1.83734,-2.12072 2.756,-2.7882 0.91867,-0.66749 1.83734,-0.85687 2.756,-0.476 0.91867,0.38087 1.83734,1.31799 2.75601,2.34227 0.91867,1.0243 1.83734,2.09159 2.756,2.67029 0.91867,0.5787 1.83734,0.64144 2.756,0.15929 0.91867,-0.48215 1.83734,-1.49067 2.75601,-2.52106"
       title="t sin(5*t)"
       id="path3869" />
    <path
       inkscape:connector-curvature="0"
       id="path6324"
       d="M 180.57143,769.50504 z"
       style="fill:none;stroke:#000000;stroke-width:1.5;stroke-linecap:butt;stroke-linejoin:miter;stroke-miterlimit:4;stroke-opacity:1;stroke-dasharray:none;marker-start:none;marker-end:url(#Arrow2Lend-1)" />
    <text
       sodipodi:linespacing="125%"
       id="text3819-4-1"
       y="740.05493"
       x="91.84774"
       style="font-size:14px;font-style:normal;font-weight:normal;text-align:center;line-height:125%;letter-spacing:0px;word-spacing:0px;text-anchor:middle;fill:#000000;fill-opacity:1;stroke:none;font-family:Sans"
       xml:space="preserve"><tspan
         style="font-size:14px;text-align:center;text-anchor:middle"
         id="tspan3823-9-4"
         y="740.05493"
         x="91.84774"
         sodipodi:role="line">redioaktives Präparat</tspan></text>
  </g>
</svg>
